<?xml version='1.0' encoding='utf-8'?>
<svg xmlns="http://www.w3.org/2000/svg" width="3000" height="2300" viewBox="0 0 793.74998 608.54166" version="1.1" id="svg3469"> <defs id="defs3463"/> <metadata id="metadata3466"> </metadata> <g id="g68" transform="matrix(4.0954855,0,0,4.0954855,-24.285396,-35.260242)"> <g style="display:inline" id="g3376" transform="matrix(1.9003235,0,0,-1.9003235,-573.30209,208.93793)"> <path d="m 359.7402,55.5225 c 0,0 2.386,0.469 3.053,0.369 0.666,-0.099 3.593,-1.011 4.128,-0.909 0.535,0.101 0.815,-0.136 0.751,-0.63 -0.066,-0.495 -1.441,-1.72 -2.665,-1.226 -1.226,0.495 -2.279,0.654 -2.838,0.38 -0.559,-0.272 -2.429,2.016 -2.429,2.016" style="fill:#965932;fill-opacity:1;fill-rule:nonzero;stroke:none" id="path4816"/> <path id="path4820" transform="matrix(0.13923068,0,0,-0.13923068,301.68658,109.94861)" d="m 451.0293,119.0332 c -5.53686,-0.13012 -10.21937,1.88493 -11.88477,7.39063 -12.90244,39.39961 -47.36384,72.54227 -70.125,109.61914 -18.91372,-11.87246 -59.05389,-33.21828 -69.12305,-36.34961 -12.41824,-3.86409 -71.6662,-56.43728 -85.26953,-44.41406 -61.17904,54.06136 14.63168,97.64982 21.29688,94.48242 6.6652,-3.15304 26.64567,24.14649 50.67773,34.45312 24.0177,10.31382 85.09636,29.40504 103.2461,28.25586 0.65747,-0.0414 1.2564,-0.17088 1.81054,-0.36523 8.81411,-2.24385 19.92088,-16.63282 27.06055,-23.43945 11.2547,-10.72322 27.14809,-66.63758 35.33594,-88.75196 8.19503,-22.11438 17.08667,-48.09353 22.88281,-63.18359 2.58743,-6.74016 -13.72711,-17.41099 -25.9082,-17.69727 z" style="fill:#bf6b59;fill-opacity:1;fill-rule:nonzero;stroke:none;stroke-width:7.18232489"/> <path d="m 366.2207,57.0498 c 0.908,0.506 3.90722,0.30449 3.30639,-1.823377 1,-1.613 3.27907,-1.230509 0.64661,-4.334623 -2.353,-1.676 -3.871,-6.172 -5.83,-6.488 -1.959,-0.314 -3.84087,7.700559 0.25256,12.350647" style="fill:#545c56;fill-opacity:1;fill-rule:nonzero;stroke:none" id="path4824"/> <path id="path881" style="fill:#737d75;fill-opacity:1;fill-rule:nonzero;stroke:none;stroke-width:0.9675796" d="m 366.21214,56.885648 c 0.87856,0.489595 3.43597,-0.271474 2.85461,-2.330355 0.96758,-1.560706 0.46537,-0.32917 -2.08175,-3.332646 -2.27671,-1.621664 -0.69352,-6.267255 -2.58901,-6.57301 -1.89549,-0.30382 -3.71634,7.450904 0.24438,11.950234"/> <path id="path4832" transform="matrix(0.13923068,0,0,-0.13923068,301.68658,109.94861)" d="m 329.06641,248.14258 c -8.7263,-0.0896 -19.39143,2.31319 -32.47852,7.875 -34.89892,14.8315 -193.67969,150.92969 -193.67969,150.92969 -18.32929,56.71163 1.73819,73.2875 74.15039,64.1875 11.85842,-1.4901 23.83298,-6.09961 35.71094,-12.83789 -2.41929,10.90137 -4.11107,18.26341 -5.16992,19.32226 -3.8e-4,3.8e-4 3.8e-4,0.002 0,0.002 -0.001,10e-4 -0.003,0.003 -0.004,0.004 -0.0248,0.0194 -20.06507,15.70971 -20.93359,27.91211 -0.87624,12.20995 12.35418,21.81345 34.5332,25.29687 22.17184,3.4978 94.75661,11.41336 104.35938,10.53711 9.59558,-0.86906 8.43923,-12.72681 0,-19.58593 -7.11769,-5.76741 -15.70778,-3.01794 -25.31055,-8.72071 -9.59559,-5.70276 -26.79097,0.0361 -45.5293,-29.66211 h -0.006 c 8.72653,-12.76299 74.16497,-89.53602 85.50586,-108.73437 11.00305,-18.61946 41.54591,-69.85166 35.24219,-80.85742 -0.3651,-9.27465 -10.90736,-17.02336 -16.69336,-27.54297 -5.99724,-10.90367 -15.15344,-17.97564 -29.69726,-18.125 z" style="fill:#b5614f;fill-opacity:1;fill-rule:nonzero;stroke:none;stroke-width:7.18232489"/> <path d="m 362.8291,92.3467 c 0,0 0.847,3.077 1.251,3.82 0.405,0.744 1.494,1.289 3.312,2.168 1.819,0.879 2.415,2.61 2.415,2.61 0,0 0.323,-0.322 0.863,-0.535 0.539,-0.212 2.256,-2.251 2.34,-3.125 0.083,-0.873 -2.702,-4.399 -3.805,-5.386 -1.103,-0.987 -2.233,-1.095 -2.233,-1.095 z" style="fill:#bf6b59;fill-opacity:1;fill-rule:nonzero;stroke:none" id="path4844"/> <path d="m 340.6963,83.9444 c -2.243,3.366 -10.391,6.782 -15.128,5.203 -4.737,-1.579 -13.19744,-6.857447 -14.10249,-15.196288 -1.00324,-9.243606 -7.90447,-25.153767 -2.71551,-30.942712 3.886,-2.307 13.725,-0.85 16.519,5.102 2.794,5.952 14.577,20.345 17.128,22.866 1.70713,1.467168 1.90547,1.511591 -1.701,12.968" style="fill:#ca7765;fill-opacity:1;fill-rule:nonzero;stroke:none" id="path4848"/> <path d="m 340.6182,86.3731 c 0,0 -0.818,-0.144 -1.287,-1.248 -0.47,-1.106 -1.218,-3.526 -1.218,-3.526 0,0 -10.669,4.483 -10.772,5.81 -0.104,1.327 2.579,3.689 3.802,4.757 1.694,1.479 8.126,3.855 8.126,3.855 z" style="fill:#ca7765;fill-opacity:1;fill-rule:nonzero;stroke:none" id="path4852"/> <path d="m 339.36813,85.378672 c 1.81,-1.131249 1.7724,-2.737627 2.99382,-6.854665 1.118,-3.881865 1.85393,-5.270716 0.39385,-9.692484 -1.522,-2.751 -14.1834,-18.064023 -14.1834,-18.064023 0,0 -19.314,1.269 -15.518,4.215 10.501,8.149 6.893,18.101 6.239,20.213 -1.462,4.719 4.95298,13.753658 9.89698,10.887658 4.946,-2.865 4.77753,-6.534427 6.68453,-5.980427 1.906,0.555 -1.03027,6.079829 -1.03027,6.079829 l 3.84474,-1.761099" style="fill:#ad5643;fill-opacity:1;fill-rule:nonzero;stroke:none" id="path4856"/> <path id="path4860" transform="matrix(0.13923068,0,0,-0.13923068,301.68658,109.94861)" d="m 280.12305,266.18555 c -8.91886,-0.20117 -19.35311,1.85726 -31.34961,6.95312 -34.89892,14.83869 -193.67969,150.9375 -193.67969,150.9375 -18.322111,56.71164 1.73882,73.28033 74.1582,64.1875 11.85584,-1.49109 23.82709,-6.10038 35.70313,-12.83789 -2.41911,10.89741 -4.11127,18.2558 -5.16992,19.31445 -0.30904,0.30853 -0.37444,0.66866 -0.24024,1.0625 -3.84627,16.27616 -19.84454,14.90324 -20.69531,26.86329 -0.87624,12.20995 12.35223,21.80626 34.53125,25.29687 29.67184,-1.50939 75.39332,11.33913 84.99609,10.46289 9.59559,-0.86906 33.14649,-14.82339 33.14649,-20.93555 0,-6.09779 -22.17653,-0.17225 -31.7793,-5.875 -14.8384,1.55442 -31.34179,-20.59179 -52.8418,-31.09179 0,0 -0.006,-0.002 -0.006,-0.002 8.73116,-12.76809 74.16352,-89.53428 85.50391,-108.7246 10.25923,-17.36727 37.92731,-63.74171 36.53516,-78.89063 1.51593,-8.74262 -8.00261,-15.39215 -13.98633,-26.26758 -6.2971,-11.44885 -17.79926,-20.06907 -34.82617,-20.45312 z" style="display:inline;fill:#ca7765;fill-opacity:1;fill-rule:nonzero;stroke:none;stroke-width:7.18232489"/> <path d="m 307.1992,46.9014 c 0,0 2.64,-5.681 8.698,-4.134 3.48347,0.890131 7.85272,1.721781 11.19484,11.025307 1.39433,3.881433 4.02116,6.210693 4.02116,6.210693 l -6.46,-16.249 c 0,0 -5.014,-3.695 -10.497,-3.114 -3.117,0.329 -6.383,1.001 -6.957,6.261" style="fill:#ad5643;fill-opacity:1;fill-rule:nonzero;stroke:none" id="path4864"/> <path d="m 323.5368,63.160128 c 0,0 2.82081,-5.394334 4.42094,-8.569503 1.17144,-1.358054 2.28538,-2.250151 2.53903,-2.41416 0.34476,-0.223173 1.65099,-1.438057 2.94209,-1.77977 2.00066,-0.529515 4.25541,-0.792296 4.6529,-0.661623 0.655,0.215 3.38114,6.341628 3.38114,6.341628 0,0 3.21178,0.364776 2.77655,2.417086 -4.73088,1.883927 -8.91255,2.359914 -8.91255,2.359914 0,0 -0.0946,0.957192 -0.12463,1.286192 -0.0977,3.456164 -1.82588,7.127638 -2.27372,8.084354 z" style="fill:#ad5643;fill-opacity:1;fill-rule:nonzero;stroke:none" id="path4872"/> <path id="path4880" transform="matrix(0.13923068,0,0,-0.13923068,301.68658,109.94861)" d="m 179.4707,168.01758 c -64.87704,0.73662 -48.91498,67.56757 -41.79101,79.89648 6.78011,11.7431 -0.0714,35.94893 8.375,60.69922 20.10931,31.80477 36.46503,75.12869 49.22851,90.06836 4.63015,7.84497 20.85622,17.9722 29.48828,23.69141 12.94643,8.57771 71.67963,8.3644 95.23047,7.5 23.55085,-0.8644 55.01858,-3.10477 67.11914,3.16601 0,0 0.002,-0.002 0.002,-0.002 0,0 4.03658,9.66066 16.31836,16.43359 5.25746,2.90166 15.72941,7.11776 26.625,10.73047 0.99666,0.32977 2.05678,0.45437 3.16211,0.41016 4.56595,1.04464 14.29118,3.25313 17.97265,3.84765 4.6326,0.7326 13.2579,-2.8317 17.9336,-5.41015 1.28786,-0.70804 1.94341,-1.87126 2.17382,-3.19531 2.17309,-1.02761 4.35084,-2.38292 6.56055,-3.59961 2.65452,-1.46387 3.99694,-4.9469 4.06445,-7.83203 0.97752,-0.56468 1.95739,-1.14163 2.94532,-1.68946 3.50389,-1.943 4.7035,-7.40145 3.70703,-10.3457 1.02176,-0.69891 2.04503,-1.41847 3.08008,-2.10352 4.45304,-2.95193 8.899,-11.92295 5.5664,-12.44726 -3.32541,-0.52431 -16.69297,2.09581 -19.29297,1.38476 -1.21374,-0.3232 -10.88091,-6.63524 -17.13672,-8.48828 -2.74364,-0.81159 -18.49414,-18.45898 -18.49414,-18.45898 l 0.006,0.0176 c -2.09986,-2.35512 -4.21031,-3.91781 -6.89062,-4.35938 -8.12321,-1.33591 -44.71094,3.90039 -44.71094,3.90039 v 0.002 c 0,0 -0.002,0 -0.002,0 -57.91964,-2.644 -89.77132,-29.49254 -153.80469,-37.00195 0.91021,-2.66378 1.44752,-4.83499 1.49023,-6.22851 -2.16963,-36.53648 -22.22502,-72.94812 -27.68359,-84.75586 -5.45857,-11.80775 0.87989,-93.02077 -17.16211,-95.06055 -5.07027,-0.57414 -9.75494,-0.81864 -14.08008,-0.76953 z" style="fill:#ca7765;fill-opacity:1;fill-rule:nonzero;stroke:none;stroke-width:7.18232489"/> <path d="m 349.417,97.4815 c 0.379,0.469 0.283,1.827 -1.216,3.018 -1.498,1.19 -4.955,2.64757 -7.055,2.77257 -2.099,0.125 -5.29965,-1.19555 -6.39365,-2.08655 -0.29392,-0.23933 -0.98238,-0.13012 -1.42148,-0.64431 -1.19377,-1.397908 -2.74972,-3.360677 -3.71987,-3.43671 -0.47844,-0.03717 -2.44953,-1.712891 -4.00351,-2.991841 1.84027,0.543149 2.3855,-0.01515 1.84845,-0.132022 -2.25541,-0.490817 -4.88452,-2.516068 -5.70437,-3.763504 -0.26891,-0.409147 2.57829,0.644326 2.4005,0.24907 -0.35404,-0.787108 -2.7518,-2.16705 -3.26746,-3.740153 -0.27151,-0.828285 -0.28777,-2.674458 0.22076,-2.605614 1.50512,2.745068 4.09111,3.375576 5.2654,3.394611 0.41622,0.0067 -0.0492,-0.662482 -1.17055,-1.440642 0.92813,0.234242 1.79828,0.752505 2.37644,1.726787 0.19207,0.323657 -0.2047,-1.663255 0.15737,-1.56097 0.28492,0.982786 0.99516,2.467269 1.62292,2.583114 0.59707,0.110182 0.24303,-0.761902 -0.49609,-1.740094 1.81751,0.823619 1.69529,1.210785 3.00134,2.434163 0.19148,0.358306 -0.12863,-1.737792 0.98785,-1.576259 -0.57794,1.529115 1.04717,4.609597 0.8851,2.122301 1.15701,1.354791 0.21672,2.615951 1.32278,3.721722 0.24129,0.241227 -0.22524,-0.799792 0.0771,-1.020669 0.80782,1.580983 3.619,1.705 5.587,2.259 3.701,1.043 8.695,2.458 8.695,2.458" style="fill:#180000;fill-opacity:1;fill-rule:nonzero;stroke:none" id="path4892"/> <path d="m 340.8311,86.5791 c 0,0 -0.773,-0.416 -1.224,-0.956 -0.451,-0.541 -0.831,-1.933 -0.831,-1.933 -6.60688,2.592772 -3.16388,3.721321 -1.74723,5.273793 1.54125,1.470714 2.84723,7.364207 2.84723,7.364207 z" style="display:inline;fill:#ad5643;fill-opacity:1;fill-rule:nonzero;stroke:none" id="path4896"/> <path d="m 339.3643,92.6719 c 0,0 -1.594,-2.7 -0.707,-4.552 0.887,-1.851 4.011,-3.653 4.442,-3.721 0.432,-0.068 3.89509,1.411768 4.10209,1.785768 0.11,0.2 0.23584,0.679517 0.23584,0.679517 0,0 -0.28445,0.24803 -0.21045,0.39403 0.86384,0.279067 0.47552,1.038685 0.67052,1.251685 0.196,0.213 1.33215,-0.320738 1.33415,0.185262 0.002,0.506 -0.46215,2.895738 -0.34415,3.225738 0.119,0.33 0.75085,1.429099 1.06706,1.89355 -0.006,0.366 0.0595,1.000511 -0.45706,1.48445 -0.444,0.11 0.258,1.263 -0.08,2.183 -0.339,0.919 -3.28,2.036 -4.691,1.22 -1.411,-0.814 -3.486,-3.092 -3.804,-3.017 -0.76753,-0.223351 -0.501,2.032962 -1.49,1.951962 -0.50241,-0.0417 -1.13177,-0.697251 -1.31363,-1.756166 -0.17576,-1.023483 0.96315,-1.892008 1.24563,-3.208796" style="fill:#ca7765;fill-opacity:1;fill-rule:nonzero;stroke:none" id="path4900"/> <path d="m 365.18205,102.39445 c -1.852,-0.974 -3.17195,-1.32575 -0.18595,-5.51775 4.28563,-2.890369 2.14622,-4.443027 6.711,-4.809 1.821,0.655 0.5629,12.11148 -1.5781,12.36548 -2.03782,1.14056 -3.9245,-0.30101 -3.93783,-0.41429" style="display:inline;fill:#555b57;fill-opacity:1;fill-rule:nonzero;stroke:none" id="path4904"/> <path id="path864" style="display:inline;fill:#757b77;fill-opacity:1;fill-rule:nonzero;stroke:none;stroke-width:1" d="m 365.48012,102.12738 c -1.852,-0.974 -3.31963,-1.05501 -0.33363,-5.247007 4.28563,-2.890369 2.09699,-4.098449 6.46487,-4.661324 1.30414,2.107152 -4.13813,7.262768 -1.84884,11.233291 -2.03782,1.14056 -3.25995,0.38815 -3.27328,0.27487"/> <path d="m 363.373,93.628 c 0,0 -0.323,2.409 -0.183,3.068 0.14,0.66 1.227,3.525 1.159,4.066 -0.068,0.54 0.185,0.804 0.674,0.711 0.49,-0.095 1.629,-1.542 1.061,-2.736 -0.568,-1.192 -0.79,-2.234 -0.552,-2.808 0.238,-0.574 -2.159,-2.301 -2.159,-2.301" style="fill:#bf6b59;fill-opacity:1;fill-rule:nonzero;stroke:none" id="path4924"/> <path style="fill:#bf6b59;fill-opacity:1;fill-rule:nonzero;stroke:none;stroke-width:1" d="m 370.93236,103.40749 c -0.0456,1.6e-4 -0.0919,-0.005 -0.13923,-0.0158 0,0 -1.54406,-0.81121 -1.63406,-1.08421 -0.091,-0.274 0.0219,-1.49592 1.08094,-1.27592 0.0822,0.0169 0.15647,0.0334 0.23305,0.05 -0.2297,-0.15406 -0.41483,-0.2987 -0.44407,-0.38642 -0.0854,-0.25632 0.009,-1.349049 0.89766,-1.300394 -0.0827,-0.06962 -0.14112,-0.131305 -0.15636,-0.17703 -0.0861,-0.261183 0.0143,-1.389957 0.95041,-1.295498 -0.0456,-0.03153 -0.079,-0.06106 -0.093,-0.08702 -0.12,-0.227 -0.19201,-1.113998 0.75299,-1.279998 0.631,-0.111 1.32795,0.194809 1.48095,0.533808 0.13292,0.297311 0.0694,1.210782 -0.40871,1.409439 0.0779,0.07418 0.13027,0.157027 0.15445,0.252356 0.0821,0.317366 -0.23764,1.191006 -0.74183,1.474977 1.2e-4,4.7e-4 4.1e-4,8.8e-4 5.5e-4,0.001 0.0892,0.34829 -0.30351,1.36799 -0.89466,1.54051 0.01,0.0232 0.0181,0.047 0.0245,0.0718 0.0975,0.38062 -0.37974,1.56555 -1.06354,1.56797 z" id="path4928"/> <path id="path4513" d="m 306.9054,50.682006 c 2.27425,0.624261 4.17231,1.66926 5.62743,3.65873 0.99149,1.973326 3.09747,2.494429 5.1028,3.546086 0.7893,-5.104625 4.95491,-6.750654 5.21822,-9.929799 0.37981,-4.585675 -1.57994,-5.715495 -1.16635,-8.231221 -4.4143,0.600163 -8.66499,-1.680973 -10.64277,-6.890961 -3.04621,4.552142 -4.27571,11.797329 -4.13933,17.847165 z" style="fill:#623e3e;fill-opacity:1;stroke:none;stroke-width:0.13923068px;stroke-linecap:butt;stroke-linejoin:miter;stroke-opacity:1"/> <path style="display:inline;opacity:1;fill:#251f12;stroke-width:0.18936922" id="path2397" d="m 345.06928,87.592299 c 0,0 0.90693,0.369928 2.72126,0.215438 0,0 0.2935,0.420684 0.0733,0.663373 0,0 -1.4725,0.276343 -2.69757,0.006 -1.4154,-0.456751 -2.53286,0.483414 -3.28101,1.225372 v 0 c -0.69195,0.782715 -0.20946,5.270729 -0.53522,6.252392 l -0.47051,-0.271512 c -0.18357,-0.363104 -0.35927,-2.919023 -1.5147,-3.019759 -0.85076,-0.986976 -1.2501,-3.392359 -0.8476,-4.325162 0.79016,-1.797318 3.11777,-3.30562 4.41277,-3.901246 0.75507,-0.377946 3.03816,-2.267964 3.33874,-2.188379 -0.31604,1.319842 1.79576,3.872905 1.06924,4.322636 -1.0237,-0.08798 -1.49846,0.513196 -2.2687,1.020816 z" class="st36"/> <path id="path860" d="m 363.32297,94.036243 c 0.45314,-1.137557 0.68365,-2.022162 2.4294,-1.94792 0.51948,-1.109208 1.49011,-0.884599 2.37091,-0.925553 -1.35796,-0.434848 -2.29973,0.27385 -2.4702,0.725785 -1.47597,-0.04739 -2.26651,1.003559 -2.33011,2.147688 z" style="fill:#965932;fill-opacity:1;stroke:none;stroke-width:0.13923068px;stroke-linecap:butt;stroke-linejoin:miter;stroke-opacity:1"/> <path id="path883" d="m 348.294,94.876872 c -0.76915,0.706656 -2.62578,0.167666 -3.13269,-0.06961 0.0252,0.07342 2.80628,0.03563 3.1675,-0.487308 0.10571,-0.15304 0.10216,0.431077 -0.0348,0.556918 z" style="fill:#000000;stroke:none;stroke-width:0.05262262;stroke-linecap:butt;stroke-linejoin:miter;stroke-opacity:1"/> <path style="fill:#000000;stroke:none;stroke-width:0.03279313;stroke-linecap:butt;stroke-linejoin:miter;stroke-opacity:1" d="m 349.18275,94.685541 c 0.72,0.30197 0.64928,-0.414394 0.61132,-0.721956 0.0465,0.06002 -0.53176,0.513804 -1.00918,0.234307 -0.13976,-0.08176 0.26964,0.433875 0.39787,0.487644 z" id="path885"/> </g> <g style="display:inline" id="g1038"> <path id="path1046" d="m 164.53332,135.88183 c -1.18867,0.20749 -1.47143,0.26019 -2.75114,0.26794 -0.9648,-0.091 -1.93435,-0.48829 -3.11726,-1.22562 -2.2007,-2.04159 -2.68154,-2.53426 -4.40596,-4.65306 -1.46561,-3.23919 -2.10631,-5.07466 -0.39742,-8.85765 0.46258,-0.52619 0.68215,-0.78827 1.42409,-1.80172 1.96505,-2.68414 3.27246,-4.34947 4.01792,-5.11362 0.2197,-0.22521 1.01397,-1.08374 1.60785,-1.59343 1.24129,-1.06533 1.63181,-1.36961 2.01915,-1.90237 0.63053,-0.86724 0.93642,-1.71893 0.93512,-3.15926 -0.001,-1.63247 -0.24237,-3.1206 -1.20042,-5.14575 -0.12308,-0.26015 -0.26369,-0.53087 -0.25185,-0.57129 0.0477,-0.16287 1.23272,0.98272 1.95597,1.74386 1.24712,1.31246 1.82242,2.53731 1.82265,3.76015 1.3e-4,0.80753 -0.0615,1.24786 -0.73145,3.32839 -0.60591,1.88174 -0.70504,2.01134 -0.66122,3.11798 0.0368,0.93031 0.20299,1.38449 0.45138,1.89455 0.15259,0.31333 0.65544,0.96979 0.74634,0.93139 0.10739,-0.0453 0.88369,-0.93907 1.25676,-1.57839 1.1632,-1.99335 1.74191,-3.01652 1.24101,-5.06962 -0.14555,-0.59659 -0.3132,-1.12497 -0.23853,-1.12497 0.0762,0 0.30556,0.3033 0.6671,0.83561 1.02263,1.50563 1.49663,3.34133 1.61481,5.01211 0.17766,1.24721 0.36885,1.35205 0.84758,0.2872 0.56641,-1.25988 0.467,-2.77809 -0.0731,-4.14066 -0.17809,-0.44925 -0.24976,-0.44425 0.17498,-0.24455 0.94985,0.44657 0.97177,0.93508 1.50871,2.18466 0.0824,0.26951 0.15769,0.44661 0.46307,0.95304 0.68389,2.1115 0.11409,6.02912 0.5294,8.23891 1.33213,2.39845 3.04977,4.84775 0.85453,9.65399 -3.79241,-1.36614 -8.16955,-0.062 -7.66972,2.29458 -0.88174,0.76098 -1.48189,0.98057 -2.64031,1.6776 z m -8.16665,-21.11043 c -0.0149,-0.0296 -0.0832,-0.26724 -0.1518,-0.52801 -0.49979,-1.8998 -0.69883,-3.20671 -0.6991,-4.59043 -2.6e-4,-1.29647 0.0798,-1.54504 0.82348,-2.55578 0.55098,-0.74888 0.68074,-1.01321 0.72996,-1.48708 0.0774,-0.74504 -0.20995,-1.91181 -0.66028,-2.68116 -0.10452,-0.17856 -0.16535,-0.34034 -0.13589,-0.3614 0.12419,-0.0888 1.18207,0.30326 1.80976,0.67069 0.6084,0.35613 1.05006,0.77074 1.55306,1.45792 1.03337,1.41177 1.16434,2.3066 0.5726,3.91213 -0.55731,1.5121 -1.46227,3.10144 -2.99386,5.25797 -0.37461,0.52746 -0.71256,0.95903 -0.75099,0.95903 -0.0384,0 -0.082,-0.0243 -0.0969,-0.0539 z m 14.33301,-7.3059 c -1.22441,-1.74162 -1.81304,-3.00318 -1.81304,-3.88572 0,-0.46063 0.11635,-0.78051 0.45414,-1.24854 0.34796,-0.48211 0.66378,-0.76159 1.13838,-1.00734 0.41115,-0.21291 0.97103,-0.38273 0.91134,-0.27643 -0.1883,0.33532 -0.37625,0.85181 -0.43545,1.19662 -0.0951,0.55379 -0.0243,0.81018 0.39286,1.42367 0.45316,0.66638 0.52518,0.93356 0.4805,1.78269 -0.0356,0.67603 -0.19785,1.64988 -0.3867,2.32056 -0.0523,0.18581 -0.0951,0.34583 -0.0951,0.3556 0,0.01 -0.0382,0.0178 -0.0848,0.0178 -0.0473,0 -0.29622,-0.30069 -0.56208,-0.67886 z" style="display:inline;fill:#f9f500;stroke-width:0.05214136"/> <path id="path1044" d="m 163.09958,132.12156 c -1.51406,-1.40145 -2.70634,-2.81443 -3.22953,-3.82737 -0.70611,-1.3671 -0.38733,-2.7041 0.84256,-3.53374 0.41478,-0.27979 1.15771,-0.62499 1.34511,-0.62499 0.0444,0 -0.0926,0.14062 -0.30445,0.31249 -0.45452,0.36878 -0.76061,0.76341 -0.95143,1.22664 -0.18322,0.4448 -0.19757,1.24893 -0.0318,1.77977 0.26213,0.8392 1.5863,3.25792 2.47497,4.52078 0.22408,0.31843 0.39634,0.58653 0.3828,0.59578 -0.0135,0.009 -0.25126,-0.19296 -0.52827,-0.44936 z m -5.05663,-0.61295 c -3.04096,-3.18692 -4.09673,-6.10498 -3.12721,-8.64329 0.3347,-0.8763 0.77323,-1.39123 1.90337,-2.23498 0.37532,-0.28021 0.93253,-0.69723 1.23824,-0.92671 0.30571,-0.22947 0.76477,-0.63148 1.02012,-0.89335 0.84492,-0.86646 2.10146,-2.43725 2.73577,-3.41996 0.11796,-0.18275 0.229,-0.3022 0.26044,-0.28017 0.031,0.0217 0.0283,0.26268 -0.006,0.55563 -0.18603,1.5743 -0.97526,2.87159 -2.51738,4.13786 -0.65649,0.53906 -1.11063,1.01203 -1.54224,1.6062 -1.08658,1.4958 -1.77577,3.5955 -1.64447,5.01006 0.13542,1.4589 0.72773,3.04327 1.82935,4.89334 0.19452,0.32668 0.3443,0.61315 0.33286,0.63662 -0.0114,0.0235 -0.22859,-0.1751 -0.48255,-0.44125 z m 11.17519,-2.36247 c -1.32923,-0.88683 -2.03626,-1.67211 -2.4546,-2.72624 -0.0824,-0.20768 -0.11035,-0.43629 -0.10796,-0.8836 0.003,-0.52899 0.0243,-0.65104 0.1744,-0.98924 0.36338,-0.81898 1.20315,-1.78461 2.32589,-2.67449 0.6437,-0.51019 1.22388,-0.91212 1.27059,-0.8802 0.0159,0.0109 0.001,0.16487 -0.0327,0.34222 -0.16492,0.86266 -0.0356,2.24799 0.25117,2.69102 0.0624,0.0963 0.38313,0.36991 0.71283,0.60793 0.74455,0.53752 0.84354,0.68728 0.78981,1.19491 -0.079,0.74636 -0.55234,1.68355 -1.49504,2.9601 -0.4287,0.58052 -0.6036,0.77785 -0.68944,0.77785 -0.0633,0 -0.39847,-0.18912 -0.74492,-0.42026 z" style="display:inline;fill:#fe7e00;stroke-width:0.05214136"/> <path id="path1042" d="m 188.18773,156.03999 c -0.60597,-0.20757 -1.99543,-0.73381 -3.80825,-1.44233 -0.96706,-0.37797 -2.03113,-0.77733 -2.3646,-0.88747 -0.55454,-0.18316 -0.64947,-0.20083 -1.11164,-0.20704 -0.27793,-0.004 -0.55746,-0.009 -0.62117,-0.0108 -0.29934,-0.0103 -1.30456,-0.83602 -1.7627,-1.44793 -0.34993,-0.46739 -0.33813,-0.49095 -0.37954,0.75834 -0.0207,0.626 -0.0693,1.27395 -0.10792,1.4399 -0.15379,0.66107 -0.45071,1.05589 -0.8449,1.1235 -0.5657,0.097 -2.05245,-0.58123 -2.42171,-1.10478 -0.22335,-0.31668 -0.18907,-0.58732 0.17067,-1.3475 0.50602,-1.0693 0.54523,-1.28561 0.44978,-2.48098 -0.0733,-0.91727 -0.18786,-1.70906 -0.39063,-2.69874 l -0.13247,-0.64654 -0.86393,-0.84051 c -3.14827,-3.0629 -6.45481,-6.56448 -8.89334,-9.41793 -0.32415,-0.37931 -0.62995,-0.72189 -0.67955,-0.76131 -0.0836,-0.0665 -0.12311,-0.0638 -0.54271,0.0364 -1.81118,0.43261 -3.3236,0.23851 -4.60621,-0.59115 -0.292,-0.18888 -0.54635,-0.34342 -0.56522,-0.34342 -0.0875,0 -2.37566,1.10141 -3.98549,1.91837 -4.68336,2.37674 -8.84375,5.02015 -12.14017,7.71357 l -0.76677,0.6265 -0.64252,8.6e-4 c -0.35339,4.8e-4 -1.62177,0.0193 -2.81863,0.0419 -2.1456,0.0404 -2.19263,0.0433 -3.35604,0.20209 -0.89351,0.12196 -1.22112,0.15104 -1.34959,0.11976 -0.4592,-0.1118 -0.37119,-0.32823 0.49477,-1.21671 0.85734,-0.87964 1.18653,-1.29837 1.39712,-1.77713 0.38539,-0.87616 0.71694,-2.05067 0.91657,-3.24701 0.10807,-0.64762 0.13791,-0.73798 0.28807,-0.87251 0.28778,-0.25783 2.72567,-1.93735 3.5594,-2.45216 3.75401,-2.31802 7.90442,-4.1588 12.55706,-5.56929 0.50303,-0.1525 0.94067,-0.29501 0.97254,-0.31669 0.0352,-0.0239 -0.12613,-0.24767 -0.40999,-0.56878 l -0.46794,-0.52935 -0.88305,-0.40009 c -2.334,-1.05747 -6.78409,-2.90962 -9.24056,-3.84598 -3.95061,-1.5059 -7.32102,-2.50753 -9.06346,-2.69353 -0.14545,-0.0155 -0.29146,-0.051 -0.32448,-0.0787 -0.14161,-0.11914 -0.91382,-1.16975 -1.14432,-1.55685 -0.31431,-0.52788 -0.49361,-0.96133 -0.60565,-1.46411 -0.26108,-1.1716 0.13357,-1.99005 1.40488,-2.91354 0.51724,-0.37573 1.10029,-0.68697 1.72245,-0.91947 0.47848,-0.17881 1.5544,-0.43199 2.15191,-0.50637 l 0.41734,-0.052 2.61028,1.03641 c 1.43566,0.57003 5.10397,2.02762 8.1518,3.23909 3.04783,1.21148 5.55163,2.20268 5.564,2.20268 0.0124,0 0.62953,-0.82919 1.37147,-1.84264 1.96505,-2.68414 3.43032,-4.54825 4.17578,-5.3124 0.2197,-0.22521 0.88535,-0.8265 1.47923,-1.33619 1.24129,-1.06533 1.66322,-1.47934 2.05056,-2.0121 0.63053,-0.86724 0.85374,-1.68586 0.85244,-3.12619 -0.001,-1.63247 -0.46562,-3.40172 -1.42367,-5.42687 -0.12308,-0.26015 -0.21408,-0.50607 -0.20224,-0.54649 0.0477,-0.16287 1.73709,1.14809 2.46034,1.90923 1.24712,1.31246 2.00432,2.8515 2.00455,4.07434 1.3e-4,0.80753 -0.11949,1.32345 -0.7894,3.40398 -0.60591,1.88174 -0.62229,1.96882 -0.57847,3.07546 0.0368,0.93031 0.11204,1.31008 0.36043,1.82014 0.15259,0.31333 0.47767,0.6804 0.56857,0.642 0.10739,-0.0453 0.65455,-0.82508 1.02762,-1.4644 1.1632,-1.99335 1.48736,-3.97387 0.98646,-6.02697 -0.14555,-0.59659 -0.13957,-0.54619 -0.0649,-0.54619 0.0762,0 0.6859,0.74151 1.04744,1.27382 1.02263,1.50563 1.71161,3.42402 1.82979,5.0948 0.0619,0.87514 0.1208,0.89729 0.36802,0.13837 0.42785,-1.31342 0.36778,-2.74502 -0.17236,-4.10759 -0.17809,-0.44925 -0.134,-0.49386 0.29074,-0.29416 0.94985,0.44657 1.60842,1.24928 1.95519,2.3831 0.0824,0.26951 0.16803,0.49002 0.19022,0.49002 0.0222,0 0.88664,-0.93353 1.92098,-2.0745 1.03434,-1.14098 1.9159,-2.10356 1.95903,-2.13907 0.11477,-0.0945 1.52943,-0.18104 2.41938,-0.148 1.18679,0.0441 1.83388,0.21144 2.1821,0.56444 0.11275,0.11429 0.205,0.25774 0.205,0.31877 0,0.0642 -0.22869,0.36356 -0.54234,0.70999 -1.10499,1.22046 -2.09077,2.42734 -2.02139,2.47475 0.0164,0.0112 0.0861,-8e-5 0.15467,-0.0252 0.17342,-0.0634 1.93345,-1.36984 2.50828,-1.86182 0.26061,-0.22304 0.52123,-0.40553 0.57916,-0.40553 0.0683,0 0.21134,0.13648 0.40663,0.38792 0.84901,1.09312 1.22427,2.24882 1.06286,3.2733 -0.0399,0.25333 -0.10034,0.51051 -0.13428,0.57151 -0.22472,0.4039 -2.91181,3.33284 -3.86707,4.21511 -0.23084,0.21321 -0.39471,0.39334 -0.36416,0.4003 0.0305,0.007 2.31101,-0.73482 5.06768,-1.6484 2.75668,-0.91357 5.06328,-1.66105 5.12578,-1.66105 0.0625,0 0.6706,0.19882 1.35131,0.44181 0.68071,0.24299 1.73321,0.58233 2.33889,0.75409 1.54188,0.43725 2.02045,0.67704 2.02112,1.01265 6.3e-4,0.18655 -0.2093,0.51592 -0.59284,0.9313 -0.45164,0.48913 -0.8617,1.08587 -1.70766,2.48505 -0.37266,0.61637 -0.70995,1.14287 -0.74953,1.17 -0.0396,0.0271 -0.24227,0.0821 -0.45042,0.1221 -0.67529,0.12986 -2.06153,0.49989 -2.91914,0.7792 -1.71127,0.55733 -2.86818,1.06729 -4.55531,2.00797 -2.68278,1.49581 -2.98646,1.64878 -4.3522,2.19236 -0.9771,0.38889 -2.59298,0.93504 -3.39854,1.14867 -0.74683,0.19805 -0.76775,0.20836 -0.7242,0.35715 0.0773,0.26422 -0.29196,0.95018 -0.89719,1.66657 -0.18782,0.22231 -0.34149,0.41492 -0.34149,0.42802 0,0.0131 0.23417,0.19315 0.52038,0.40012 0.2862,0.20696 0.78747,0.61288 1.11393,0.90204 0.50534,0.44761 0.60452,0.51551 0.66728,0.45686 0.12062,-0.11272 1.5299,-0.0633 1.97224,0.0691 0.9441,0.2827 0.99339,0.78491 0.16422,1.67327 -0.11659,0.12492 -0.21199,0.24604 -0.21199,0.26916 0,0.0231 0.26,0.31853 0.57778,0.65647 2.22264,2.36371 5.41153,6.00156 8.68089,9.90308 l 1.20998,1.44394 0.0741,0.9155 c 0.0802,0.99168 0.0122,2.00717 -0.16511,2.46461 -0.0498,0.1285 -0.27551,0.49703 -0.50155,0.81896 -0.22605,0.32193 -0.43953,0.67261 -0.47441,0.77929 -0.10076,0.3082 -0.0773,0.70064 0.0888,1.48704 0.25032,1.18473 0.28754,1.45201 0.22708,1.63036 -0.1046,0.30858 -0.39014,0.35875 -0.95009,0.16695 z m -24.69404,-20.11592 c 0.24284,-0.0347 0.67292,-0.14106 0.95573,-0.23632 0.42985,-0.14477 0.64197,-0.25879 1.29305,-0.69506 0.42836,-0.28703 0.86991,-0.56997 0.98123,-0.62875 l 0.20238,-0.10687 -0.0354,-0.48114 c -0.0325,-0.44141 -0.0213,-0.51141 0.13509,-0.84752 0.44294,-0.95172 1.01,-1.30768 2.56974,-1.6131 1.907,-0.37341 3.39442,-0.2993 4.65825,0.23211 0.17137,0.0721 0.33854,0.13101 0.37149,0.13101 0.13676,0 0.72095,-1.48706 0.9567,-2.4353 0.21018,-0.84543 0.20051,-1.99913 -0.023,-2.73895 -0.25214,-0.83471 -0.71779,-1.94406 -1.03776,-2.47232 -0.15933,-0.26306 -0.4299,-0.71104 -0.60126,-0.99552 -0.79749,-1.32395 -0.90979,-2.61464 -0.42191,-4.84905 0.24355,-1.11544 0.27938,-2.08249 0.0974,-2.62926 -0.30431,-0.91439 -1.62335,-3.71762 -1.71866,-3.6525 -0.0138,0.009 0.017,0.35507 0.0684,0.76805 0.12798,1.02693 0.11938,1.52616 -0.0372,2.15707 -0.1594,0.64228 -0.35834,1.08886 -0.72304,1.62303 -0.36595,0.536 -0.50719,0.69195 -2.23377,2.46635 -0.81889,0.84158 -1.69825,1.77221 -1.95412,2.06807 -2.52615,2.92087 -3.47697,4.28466 -3.81929,5.47809 -0.14258,0.49708 -0.19201,1.54907 -0.0991,2.10884 0.22713,1.36831 0.68997,2.32535 1.5357,3.17549 0.43846,0.44075 0.44213,0.44514 0.37207,0.44514 -0.11661,0 -0.71589,-0.40424 -0.9522,-0.64231 -0.49779,-0.50149 -0.80546,-1.03166 -1.10303,-1.90075 -0.28847,-0.84246 -0.36881,-1.40396 -0.33305,-2.32754 0.0366,-0.9451 0.15562,-1.39346 0.57795,-2.17702 0.79049,-1.4666 3.67611,-4.93074 6.37276,-7.65039 0.38785,-0.39116 0.71979,-0.74029 0.73764,-0.77585 0.041,-0.0817 -0.0487,-1.45033 -0.13996,-2.13358 -0.12099,-0.90632 -0.35769,-1.73732 -0.89007,-3.12495 -0.30471,-0.79423 -0.36525,-0.88635 -0.36824,-0.56033 -0.003,0.33809 -0.17608,1.58224 -0.29065,2.09048 -0.13497,0.59874 -0.42032,1.31846 -0.79465,2.00427 -0.73706,1.35037 -1.74649,2.54701 -4.59949,5.45249 -1.7805,1.81325 -2.27743,2.34983 -2.97838,3.21605 -1.5663,1.93557 -1.93564,2.73063 -1.9348,4.165 4.4e-4,0.7123 0.1,1.24522 0.37967,2.03253 0.28589,0.80473 0.13756,0.72517 -0.27315,-0.1465 -0.3979,-0.84451 -0.51411,-1.35654 -0.51359,-2.2629 7.5e-4,-1.28156 0.26561,-1.95928 1.32235,-3.38356 1.32476,-1.78552 2.92253,-3.54843 5.42568,-5.98644 l 1.05715,-1.02964 -0.10571,-0.11258 c -0.39655,-0.4223 -0.71298,-0.95973 -0.92915,-1.57808 -0.1284,-0.36728 -0.14978,-0.53301 -0.14456,-1.12067 0.007,-0.75714 0.0852,-1.1853 0.47405,-2.58616 0.67592,-2.43508 0.83394,-3.21557 0.83776,-4.13785 0.003,-0.61881 -0.0145,-0.73251 -0.16606,-1.10697 -0.35888,-0.88657 -1.00774,-1.88356 -1.69207,-2.59991 -0.32317,-0.33829 -0.47215,-0.42137 -0.57154,-0.31873 -0.0797,0.0824 -0.0328,0.35943 0.33182,1.95668 0.37348,1.63627 0.42807,2.01097 0.43087,2.95766 0.005,1.63697 -0.3618,2.25192 -2.61827,4.39134 -1.52508,1.44597 -2.34011,2.38054 -4.67991,5.36629 -0.52017,0.66378 -1.23032,1.52815 -1.57809,1.92082 -0.84142,0.95003 -0.9893,1.15857 -1.34294,1.89376 -0.58189,1.20976 -0.81398,2.14255 -0.81571,3.27855 -0.002,1.50132 0.50522,3.18756 1.4257,4.73692 0.55993,0.94247 1.33407,1.87936 2.6369,3.19123 1.11458,1.12233 1.58997,1.5434 2.23851,1.98278 0.95743,0.64863 1.52459,0.81119 2.84367,0.81508 0.46302,0.001 0.97069,-0.0237 1.22998,-0.0608 z m -5.53947,4.77245 c -0.37817,-0.15777 -1.04547,-0.98489 -1.43411,-1.7776 -0.1765,-0.36 -0.19626,-0.44763 -0.16972,-0.75289 0.0681,-0.78389 0.74353,-1.26771 1.95388,-1.39967 0.79152,-0.0863 1.19854,0.0343 1.41612,0.41966 0.0917,0.16233 0.11417,0.32127 0.11124,0.7854 -0.004,0.56658 -0.0108,0.59639 -0.27229,1.13329 -0.33967,0.6973 -0.81898,1.35767 -1.11384,1.53458 -0.25843,0.15506 -0.25714,0.15491 -0.49128,0.0572 z m 4.04206,-0.63711 c -0.47239,-0.0783 -0.84041,-0.20892 -0.9705,-0.34459 -0.22644,-0.23616 0.032,-0.96881 0.63797,-1.80847 0.36167,-0.50116 0.69435,-0.79699 0.89628,-0.79699 0.26689,0 0.69048,0.45384 1.12642,1.20688 0.44101,0.76179 0.64517,1.45012 0.48212,1.62545 -0.0267,0.0287 -0.15308,0.0821 -0.28085,0.11854 -0.2949,0.0842 -1.38095,0.0837 -1.89144,-8.3e-4 z m 18.78008,-6.61578 c -0.99561,-0.10506 -2.36623,-0.46572 -2.65207,-0.69786 -0.21975,-0.17846 -0.30022,-0.4335 -0.26406,-0.83698 0.0538,-0.6002 0.46792,-1.04838 1.10821,-1.1993 1.04587,-0.24652 3.18441,-0.25564 3.90681,-0.0167 0.39284,0.12996 0.48615,0.27663 0.47621,0.74854 -0.0172,0.81781 -0.56611,1.73121 -1.16814,1.94395 -0.23384,0.0826 -0.91067,0.11069 -1.40696,0.0583 z m -30.43391,-2.63103 c -0.67094,-0.0588 -1.76375,-0.21491 -2.28648,-0.32658 -0.37805,-0.0808 -0.48884,-0.12246 -0.48884,-0.18401 0,-0.21005 1.80905,-0.54578 2.47849,-0.45996 0.39098,0.0501 1.17989,0.62149 1.17989,0.85452 0,0.0755 -0.23707,0.16923 -0.39833,0.15744 -0.0411,-0.003 -0.25923,-0.0216 -0.48473,-0.0414 z m -6.16417,-0.58682 c -0.19028,-0.19816 -0.18616,-0.8455 0.009,-1.36451 0.17804,-0.47423 0.48992,-0.90266 0.75532,-1.03755 0.51453,-0.26152 2.87727,0.094 3.99501,0.60117 0.56629,0.25693 0.51279,0.41455 -0.25744,0.75843 -0.83826,0.37425 -2.67101,0.94578 -3.50833,1.09405 -0.57807,0.10236 -0.85946,0.0877 -0.99325,-0.0516 z m 12.18839,-15.45438 c -0.0149,-0.0296 -0.0832,-0.26724 -0.1518,-0.52801 -0.49979,-1.8998 -0.69883,-3.20671 -0.6991,-4.59043 -2.6e-4,-1.29647 0.0798,-1.54504 0.82348,-2.55578 0.55098,-0.74888 0.68074,-1.01321 0.72996,-1.48708 0.0774,-0.74504 -0.20995,-1.91181 -0.66028,-2.68116 -0.10452,-0.17856 -0.16535,-0.34034 -0.13589,-0.3614 0.12419,-0.0888 1.18207,0.30326 1.80976,0.67069 0.6084,0.35613 1.05006,0.77074 1.55306,1.45792 1.03337,1.41177 1.16434,2.3066 0.5726,3.91213 -0.55731,1.5121 -1.46227,3.10144 -2.99386,5.25797 -0.37461,0.52746 -0.71256,0.95903 -0.75099,0.95903 -0.0384,0 -0.082,-0.0243 -0.0969,-0.0539 z m 0.67357,-1.33618 c 1.22713,-1.52217 2.14198,-3.25376 2.73839,-5.1831 0.22144,-0.71636 0.27924,-1.80079 0.12177,-2.28449 -0.2995,-0.91991 -0.9004,-1.64678 -1.9865,-2.40292 -0.59935,-0.41728 -0.75808,-0.47448 -0.598,-0.21552 0.28101,0.45462 0.41702,0.93449 0.45171,1.59376 0.0418,0.79406 -0.0222,0.96715 -0.65091,1.75951 -0.87131,1.09816 -0.98018,1.31484 -1.09888,2.18688 -0.1173,0.86188 0.0726,2.97873 0.38567,4.29804 0.14319,0.60353 0.17269,0.68964 0.23626,0.68964 0.0244,0 0.2046,-0.19881 0.40049,-0.4418 z m 13.65944,-5.96972 c -1.22441,-1.74162 -1.81304,-3.00318 -1.81304,-3.88572 0,-0.46063 0.11635,-0.78051 0.45414,-1.24854 0.34796,-0.48211 0.66378,-0.76159 1.13838,-1.00734 0.41115,-0.21291 0.97103,-0.38273 0.91134,-0.27643 -0.1883,0.33532 -0.37625,0.85181 -0.43545,1.19662 -0.0951,0.55379 -0.0243,0.81018 0.39286,1.42367 0.45316,0.66638 0.52518,0.93356 0.4805,1.78269 -0.0356,0.67603 -0.19785,1.64988 -0.3867,2.32056 -0.0523,0.18581 -0.0951,0.34583 -0.0951,0.3556 0,0.01 -0.0382,0.0178 -0.0848,0.0178 -0.0473,0 -0.29622,-0.30069 -0.56208,-0.67886 z m 0.57431,-0.23707 c 0.21636,-0.95405 0.30979,-2.16545 0.20695,-2.68314 -0.0582,-0.29313 -0.13674,-0.43717 -0.52366,-0.96084 -0.44453,-0.60163 -0.45578,-0.62486 -0.48166,-0.99481 -0.0203,-0.28945 0.005,-0.46358 0.10655,-0.73833 0.0732,-0.19774 0.11846,-0.36951 0.10063,-0.38169 -0.053,-0.0363 -0.68604,0.45534 -0.90673,0.70418 -0.11249,0.12684 -0.28034,0.37288 -0.373,0.54676 -0.15034,0.2821 -0.16798,0.37414 -0.16394,0.85492 0.005,0.61754 0.18429,1.18692 0.69417,2.20691 0.38147,0.76311 1.07096,1.75854 1.21806,1.75854 0.0285,0 0.0836,-0.14063 0.12263,-0.3125 z" style="display:inline;fill:#9e5f1f;stroke-width:0.05214136"/> <path id="path1040" d="m 188.34492,156.0481 c -0.17319,-0.0619 -0.55614,-0.20464 -0.85102,-0.31708 -0.29488,-0.11245 -0.7916,-0.2979 -1.10382,-0.41213 -0.31223,-0.11422 -1.33405,-0.50797 -2.27072,-0.87499 -2.39416,-0.9381 -2.50233,-0.97099 -3.28306,-0.99813 -0.44489,-0.0155 -0.68221,-0.0437 -0.79595,-0.0948 -0.36244,-0.16264 -1.04852,-0.79984 -1.53746,-1.42791 -0.16027,-0.20588 -0.31747,-0.37433 -0.34932,-0.37433 -0.0329,0 -0.0582,0.32101 -0.0585,0.74352 -0.001,1.34738 -0.15858,2.32652 -0.43368,2.69486 -0.17928,0.24004 -0.34435,0.32331 -0.6409,0.32331 -0.60468,0 -1.83528,-0.59896 -2.16799,-1.05521 -0.23489,-0.32209 -0.21478,-0.53371 0.11711,-1.23289 0.52026,-1.096 0.50927,-1.05035 0.50019,-2.07703 -0.008,-0.93606 -0.13548,-1.95994 -0.40429,-3.25425 l -0.12533,-0.60343 -0.34912,-0.34483 c -0.19202,-0.18965 -0.7749,-0.76184 -1.29529,-1.27153 -2.58875,-2.53553 -5.75707,-5.91059 -8.0318,-8.55588 -0.40771,-0.47413 -0.77766,-0.88801 -0.8221,-0.91974 -0.0672,-0.048 -0.17477,-0.0359 -0.64066,0.0722 -1.81254,0.4205 -3.26634,0.20979 -4.63526,-0.67183 -0.23006,-0.14816 -0.44066,-0.26939 -0.46799,-0.26939 -0.105,0 -2.57267,1.18526 -4.16102,1.9986 -3.1029,1.58888 -5.61966,3.06977 -8.1752,4.81037 -1.69578,1.155 -2.55019,1.78794 -3.76865,2.79177 l -0.79739,0.65694 -1.10382,0.001 c -0.6071,6.5e-4 -1.89546,0.0198 -2.86301,0.0425 -1.63958,0.0385 -1.83685,0.0519 -2.90147,0.19794 -0.92228,0.12651 -1.17569,0.14766 -1.31574,0.10985 -0.34726,-0.0937 -0.23712,-0.28862 0.70903,-1.25448 0.73475,-0.75005 1.01927,-1.09663 1.1942,-1.4547 0.40148,-0.82181 0.83254,-2.30762 1.04685,-3.60841 l 0.099,-0.60062 0.48575,-0.36919 c 0.75541,-0.57416 2.67687,-1.87424 3.5139,-2.37755 3.81661,-2.29497 7.94042,-4.09565 12.4574,-5.43958 0.57685,-0.17162 0.79246,-0.25634 0.80339,-0.31567 0.008,-0.0446 -0.19203,-0.31384 -0.44499,-0.59831 l -0.45993,-0.51724 -1.19498,-0.53046 c -6.10013,-2.7079 -11.75619,-4.87819 -15.07696,-5.78517 -1.07366,-0.29324 -2.3125,-0.55868 -2.91146,-0.62382 -0.30808,-0.0335 -0.35494,-0.0714 -0.79968,-0.64662 -0.87195,-1.12777 -1.37394,-2.24072 -1.38023,-3.0601 -0.003,-0.36447 0.0239,-0.48459 0.17263,-0.77604 0.22159,-0.43426 0.32494,-0.5708 0.72655,-0.95986 1.01491,-0.9832 2.6247,-1.67664 4.41889,-1.90349 l 0.41053,-0.0519 2.04941,0.8145 c 1.12718,0.44797 4.77403,1.89734 8.10413,3.22082 3.3301,1.32348 6.10221,2.41482 6.16025,2.42519 0.0838,0.015 0.32523,-0.28649 1.17189,-1.4632 1.67365,-2.32609 3.66696,-4.87802 4.41592,-5.65345 0.22572,-0.2337 0.9128,-0.85598 1.52685,-1.38283 1.2697,-1.08941 1.73354,-1.55101 2.12079,-2.11056 0.58032,-0.83852 0.78368,-1.62595 0.78368,-3.03448 0,-1.62669 -0.35773,-3.07446 -1.26502,-5.11967 -0.17485,-0.39416 -0.30837,-0.73621 -0.29671,-0.76012 0.0246,-0.0505 0.82354,0.52025 1.3821,0.98736 1.47469,1.23326 2.50443,2.77378 2.82366,4.22429 0.18938,0.86054 8.6e-4,1.87403 -0.78421,4.21581 -0.49018,1.46214 -0.54914,1.74973 -0.54788,2.67236 0.002,1.20438 0.19283,1.92323 0.6649,2.49996 0.11644,0.14224 0.2564,0.2646 0.31104,0.27191 0.13116,0.0176 0.32586,-0.21479 0.82574,-0.98542 1.42602,-2.19844 1.86296,-4.34684 1.32643,-6.52196 -0.0518,-0.21018 -0.0821,-0.39047 -0.0672,-0.40065 0.0729,-0.0498 0.92382,1.10626 1.32379,1.79854 0.50223,0.86924 0.89793,1.85542 1.14031,2.84194 0.14423,0.58703 0.2904,1.58884 0.29152,1.9981 0.002,0.63194 0.16079,0.5699 0.43021,-0.1678 0.25101,-0.68729 0.29419,-0.97176 0.29419,-1.93806 0,-1.00972 -0.0352,-1.21994 -0.35587,-2.12727 -0.10352,-0.29286 -0.17776,-0.53962 -0.16499,-0.54835 0.0128,-0.009 0.16692,0.0503 0.34255,0.13109 0.88867,0.40896 1.55599,1.27064 1.90318,2.45749 0.12615,0.4312 0.16486,0.49649 0.2544,0.42899 0.0294,-0.0221 0.91272,-0.99064 1.96305,-2.15226 1.05032,-1.16161 1.9213,-2.12105 1.93551,-2.13207 0.0142,-0.011 0.34378,-0.044 0.73238,-0.0733 1.80545,-0.13615 3.03636,-0.003 3.61835,0.39209 0.44747,0.30358 0.43527,0.39162 -0.14149,1.02103 -0.75338,0.82217 -1.45499,1.64711 -1.79728,2.11322 -0.5286,0.71981 -0.41068,0.73475 0.54577,0.0691 0.92513,-0.64383 1.37755,-0.98547 1.95712,-1.47787 0.38423,-0.32645 0.49945,-0.39962 0.56801,-0.36074 0.15043,0.0853 0.76358,0.99323 0.96488,1.42876 0.27236,0.58924 0.39144,1.0945 0.39373,1.67061 0.003,0.86826 -0.0346,0.95227 -0.8729,1.92533 -1.29717,1.50574 -2.34123,2.60691 -3.27792,3.45719 -0.21877,0.19859 -0.38298,0.37741 -0.36491,0.39739 0.0437,0.0483 -0.0204,0.0688 5.50535,-1.76666 2.6484,-0.87973 4.85107,-1.5995 4.89482,-1.5995 0.0438,0 0.65851,0.20718 1.36612,0.4604 0.70762,0.25323 1.74494,0.58967 2.30516,0.74765 1.11606,0.31472 1.47797,0.44516 1.7498,0.63065 0.42172,0.28779 0.38872,0.38543 -0.45073,1.33351 -0.47443,0.53581 -0.7115,0.88844 -1.79378,2.6682 -0.27391,0.45042 -0.53222,0.84149 -0.57402,0.86903 -0.0418,0.0275 -0.28889,0.0926 -0.54907,0.14457 -1.37484,0.27464 -3.53113,0.94921 -4.88835,1.52928 -0.90841,0.38824 -1.51551,0.70148 -3.343,1.72483 -0.8326,0.46624 -1.82603,0.9897 -2.20764,1.16325 -1.3809,0.62799 -3.08807,1.24645 -4.63006,1.67731 l -0.79443,0.22199 -0.0382,0.34342 c -0.0499,0.44868 -0.44873,1.09012 -1.13151,1.81983 -0.10858,0.11605 -0.13252,0.0901 0.58184,0.63153 0.30112,0.22824 0.85031,0.68753 1.22044,1.02063 0.37012,0.33311 0.68762,0.59563 0.70555,0.58338 0.0179,-0.0123 9.2e-4,-0.0844 -0.0378,-0.16021 -0.0387,-0.0759 -0.0704,-0.15444 -0.0704,-0.17461 0,-0.051 0.9831,-0.046 1.39262,0.007 0.45714,0.0592 0.84935,0.19553 1.01205,0.35167 0.28217,0.27079 0.11681,0.76772 -0.46028,1.38316 -0.1059,0.11293 -0.17962,0.23901 -0.16383,0.28017 0.0158,0.0412 0.52509,0.60823 1.13179,1.26016 1.3327,1.43205 3.35795,3.71182 5.11181,5.75421 1.551,1.80617 4.10837,4.8414 4.16503,4.94329 0.0222,0.04 0.0726,0.47233 0.11196,0.96077 0.0782,0.97042 0.0117,1.93211 -0.16687,2.41476 -0.0526,0.14224 -0.26471,0.4874 -0.47128,0.76703 -0.63896,0.86493 -0.6792,1.14248 -0.37231,2.56794 0.25085,1.16521 0.24525,1.53001 -0.0254,1.6535 -0.11036,0.0504 -0.17704,0.04 -0.51143,-0.0797 z m -0.0437,-0.58561 c 0.12614,-0.0862 0.086,-0.46161 -0.12165,-1.13766 -0.14233,-0.4634 -0.19947,-0.76963 -0.20499,-1.09864 -0.008,-0.44978 -0.005,-0.45943 0.20945,-0.68965 0.39877,-0.42886 0.49656,-0.59656 0.72214,-1.23852 0.25662,-0.73026 0.45287,-1.53412 0.51319,-2.10207 0.0449,-0.42238 -0.0702,-1.51627 -0.16801,-1.59766 -0.0328,-0.0273 -0.26431,-0.0634 -0.51438,-0.0801 -0.59326,-0.0397 -1.71558,-0.23349 -2.33664,-0.40342 -0.27109,-0.0742 -0.51779,-0.13487 -0.54823,-0.13487 -0.0304,0 -0.0391,0.0937 -0.0192,0.20831 0.0542,0.31278 -0.10636,0.63046 -0.45627,0.90272 -0.46412,0.36111 -0.85906,0.44667 -1.22959,0.26638 -0.2536,-0.1234 -0.75089,-0.65378 -1.54523,-1.64804 -0.83582,-1.04618 -1.20137,-1.35853 -1.32736,-1.13417 -0.0824,0.14678 0.49858,1.45722 1.16702,2.63224 0.10759,0.18911 0.19561,0.35617 0.19561,0.37123 0,0.0151 -0.18534,0.0897 -0.41186,0.16595 -0.81368,0.27373 -1.36004,0.80822 -1.58882,1.55428 -0.0905,0.29514 -0.11198,0.5717 -0.11043,1.42239 0.002,1.07331 0.0368,1.24998 0.24673,1.24998 0.28648,0 2.2703,0.65713 4.06581,1.34677 1.15603,0.44402 3.24373,1.19601 3.32082,1.19616 0.0364,0 0.10029,-0.0232 0.14192,-0.0516 z m -2.0058,-1.4275 c 0,-0.40806 0.30516,-0.8253 0.58284,-0.79692 0.26586,0.0272 0.27595,0.14097 0.0299,0.33738 -0.12605,0.10063 -0.29232,0.28708 -0.3695,0.41432 -0.0772,0.12725 -0.16349,0.23136 -0.1918,0.23136 -0.0283,0 -0.0515,-0.0838 -0.0515,-0.18614 z m -1.57653,-1.3438 c -0.29212,-0.17767 -0.55428,-0.35132 -0.58258,-0.38588 -0.088,-0.10742 0.12559,-0.67426 0.39442,-1.04688 0.33197,-0.46013 0.87491,-0.83916 1.5344,-1.07115 0.26103,-0.0918 0.4952,-0.15287 0.52038,-0.13566 0.0252,0.0172 -0.12352,0.1526 -0.33047,0.30086 -0.20694,0.14827 -0.51202,0.40044 -0.67794,0.56039 -0.36992,0.35658 -1.04779,1.15244 -1.04779,1.23016 0,0.0313 0.15197,0.19728 0.3377,0.36891 0.38049,0.35157 0.51098,0.50231 0.43486,0.50231 -0.0285,0 -0.29086,-0.14537 -0.58298,-0.32306 z m 1.10923,-0.2696 c 0.12794,-0.382 0.63924,-0.88384 1.04748,-1.02811 0.22193,-0.0784 0.22794,-0.0216 0.0122,0.11544 -0.22799,0.14481 -0.67684,0.58076 -0.85092,0.82647 -0.15981,0.22556 -0.2708,0.27139 -0.20877,0.0862 z m -2.87416,-1.5219 c -8.4e-4,-0.037 0.0999,-0.18243 0.22394,-0.32327 0.91452,-1.03866 2.23135,-1.67099 4.18031,-2.00735 0.75572,-0.13042 0.98831,-0.14908 1.04716,-0.084 0.0482,0.0533 -0.036,0.90856 -0.0894,0.90856 -0.0231,0 -0.16148,-0.12806 -0.3075,-0.28457 -0.31218,-0.33462 -0.24322,-0.33321 -1.29734,-0.0267 -1.50538,0.43776 -2.60082,0.95938 -3.45967,1.64741 -0.16524,0.13237 -0.29661,0.20739 -0.29747,0.16988 z m -5.70394,4.03185 c 0.0512,-0.13942 -0.12447,-0.85197 -0.28884,-1.17155 -0.23441,-0.45576 -0.9285,-1.04746 -1.22872,-1.04746 -0.0772,0 -0.18706,0.0353 -0.24419,0.0784 -0.18718,0.14134 -0.37161,0.57385 -0.38039,0.89208 -0.007,0.26269 0.0124,0.32018 0.14934,0.43748 0.37326,0.31966 1.57365,0.91955 1.84004,0.91955 0.068,0 0.12874,-0.0431 0.15276,-0.10854 z m 0.5157,-4.20173 c 0.0598,-3.04276 0.0194,-4.45588 -0.14223,-4.97836 -0.14805,-0.47858 -0.42692,-1.06307 -0.82743,-1.73419 -0.18722,-0.31373 -0.34041,-0.59922 -0.34041,-0.63441 0,-0.37332 1.2569,1.16493 1.51471,1.85378 0.27709,0.74032 0.45745,2.6997 0.43225,4.69578 -0.0173,1.37499 -0.0169,1.37989 0.1308,1.57325 0.29828,0.39035 1.27431,1.34295 1.37117,1.33824 0.0284,-0.001 0.0426,-0.32729 0.0316,-0.72425 -0.0523,-1.89006 0.54427,-3.04416 1.79037,-3.46337 0.22323,-0.0751 0.40587,-0.14533 0.40587,-0.15607 0,-0.0108 -0.16718,-0.33297 -0.37153,-0.71606 -0.73583,-1.37949 -1.07797,-2.20364 -1.07876,-2.59853 -7.9e-4,-0.39712 0.20375,-0.38864 0.79302,0.0329 0.49955,0.35736 1.1824,0.98736 2.15438,1.98765 0.70039,0.72079 0.80394,0.80817 0.95769,0.80817 0.39692,0 0.6388,-0.35463 0.68438,-1.0034 0.018,-0.25554 0.0562,-0.47455 0.0849,-0.4867 0.0288,-0.0121 0.11694,0.006 0.19598,0.0411 0.67771,0.29787 3.01363,0.71693 3.01363,0.54064 0,-0.13854 -2.22328,-2.85601 -3.58274,-4.3791 -3.00292,-3.36437 -8.55447,-9.11154 -9.81249,-10.15827 -0.44693,-0.37187 -1.348,-0.76433 -2.12558,-0.92579 -1.24124,-0.25775 -2.90983,-0.20502 -3.88653,0.12282 -0.53778,0.18051 -1.13723,0.62832 -1.48727,1.11106 -0.22444,0.30951 -0.26937,0.41584 -0.28922,0.68454 -0.0207,0.27984 0.0326,0.5466 0.15128,0.75802 0.0222,0.0396 -0.0338,0.11171 -0.14078,0.18121 -0.36632,0.23796 -1.67621,0.88865 -2.13627,1.0612 -0.35554,0.13334 -0.46769,0.19629 -0.43941,0.24665 0.0513,0.0914 2.19672,2.48261 3.91301,4.36135 3.49155,3.82202 5.46705,5.81739 5.99229,6.05256 0.20971,0.0939 0.34587,0.0293 0.34484,-0.16355 -0.002,-0.31938 -1.19307,-2.44172 -2.15649,-3.84164 -0.24472,-0.35559 -0.88393,-1.24647 -1.42046,-1.97971 -0.53654,-0.73325 -1.00217,-1.38106 -1.03473,-1.43958 -0.13089,-0.23526 0.14692,0.0161 0.65375,0.59143 2.71001,3.07645 4.00227,5.0356 4.36714,6.6209 0.20759,0.9019 0.28867,2.21508 0.3072,4.97545 l 0.01,1.44103 0.33789,0.16009 c 0.68284,0.32353 1.12966,0.69419 1.37281,1.13881 l 0.11786,0.21551 0.0454,-0.25862 c 0.025,-0.14223 0.0693,-1.47087 0.0984,-2.95253 z m 6.49875,-6.75404 c -2.07387,-1.68021 -4.84409,-4.2126 -6.45038,-5.89659 -0.87566,-0.91803 -1.74833,-1.91119 -1.87292,-2.13152 l -0.0598,-0.1057 0.13568,0.0839 c 0.27819,0.17204 4.68341,4.23044 6.33433,5.83563 0.78159,0.75994 2.17037,2.19555 2.33133,2.40993 0.19038,0.25359 0.0623,0.19365 -0.41827,-0.19566 z m -3.69095,-1.65901 c -2.17362,-1.78418 -4.61219,-4.06205 -6.05929,-5.65997 -0.68187,-0.75294 -0.8486,-0.94798 -0.91905,-1.07515 -0.046,-0.083 -0.0451,-0.083 0.0914,0 0.0758,0.0461 0.9241,0.80144 1.88512,1.67858 3.20383,2.92419 5.60964,5.29785 5.46783,5.39476 -0.0162,0.0111 -0.2259,-0.14113 -0.466,-0.33822 z m -5.51917,-3.837 c -0.5068,-0.39904 -1.82202,-1.56551 -2.51714,-2.23245 -1.1451,-1.09868 -2.23448,-2.28593 -2.09528,-2.28352 0.0648,0.001 0.79455,0.64833 2.13002,1.88899 1.64994,1.53279 2.93416,2.82498 2.85877,2.8765 -0.0175,0.012 -0.18688,-0.10032 -0.37637,-0.24952 z m -39.31192,6.88113 c 1.03995,-0.1047 3.39541,-0.23443 4.2568,-0.23443 0.26719,0 0.61977,-0.0125 0.7835,-0.0279 0.34272,-0.0321 0.39089,-0.0731 0.96462,-0.82051 0.55638,-0.72484 0.78803,-1.29144 0.68357,-1.67196 -0.0554,-0.20162 -0.41815,-0.47675 -0.71776,-0.54432 -0.12754,-0.0288 -0.38822,-0.0638 -0.57929,-0.0778 l -0.34739,-0.0255 0.011,-0.17241 c 0.0549,-0.86186 0.0463,-0.9452 -0.1239,-1.19925 -0.21571,-0.32197 -0.44762,-0.39674 -1.426,-0.45979 -0.54529,-0.0351 -0.78535,-0.0715 -1.02944,-0.15606 -0.36584,-0.12668 -0.872,-0.43557 -1.06693,-0.6511 -0.0735,-0.0813 -0.15433,-0.13186 -0.17956,-0.11234 -0.0252,0.0195 -0.0773,0.30702 -0.11582,0.63892 -0.2422,2.08901 -0.33809,2.52591 -0.66932,3.04944 -0.30587,0.48345 -1.51694,1.84183 -1.94387,2.18032 -0.19936,0.15806 -0.36257,0.30255 -0.36269,0.32109 -4.1e-4,0.0649 0.28612,0.10901 0.56747,0.0873 0.15611,-0.012 0.73887,-0.0677 1.29503,-0.12369 z m 2.64555,-1.16113 c 0.14081,-0.78301 0.161,-0.97847 0.12685,-1.22843 -0.0211,-0.15409 -0.053,-0.33351 -0.071,-0.3987 -0.0529,-0.19174 0.0966,-0.13955 0.2469,0.0862 0.27151,0.40771 0.13296,1.3565 -0.24455,1.67471 -0.0894,0.0753 -0.0939,0.0649 -0.0582,-0.13378 z m 1.49585,-0.59982 c -0.13731,-1.03887 -0.50044,-1.76928 -1.18276,-2.37908 -0.18865,-0.1686 -0.343,-0.31942 -0.343,-0.33516 0,-0.0738 0.39362,0.12367 0.6949,0.3486 0.38122,0.28461 0.67425,0.67937 0.92149,1.24135 0.14026,0.31883 0.1716,0.47621 0.17596,0.8836 0.005,0.49256 -0.0516,0.81895 -0.14259,0.81895 -0.0262,0 -0.082,-0.26021 -0.124,-0.57826 z m -2.74831,-0.0252 c 0.0933,-0.13039 0.24331,-0.37476 0.33339,-0.54304 0.17415,-0.32531 0.27687,-0.3939 0.31064,-0.20741 0.0267,0.14754 -0.29546,0.59504 -0.58778,0.81645 l -0.22585,0.17106 z m 17.3068,-6.68044 c 2.13352,-1.09431 3.88699,-2.0126 3.89659,-2.04063 0.01,-0.028 -0.24235,-0.26419 -0.55988,-0.52478 -1.48275,-1.21687 -2.54061,-2.26255 -3.18984,-3.15311 -0.23053,-0.31622 -0.42852,-0.57495 -0.43996,-0.57495 -0.13357,0 -1.7749,0.51155 -3.16779,0.9873 -3.52047,1.20243 -6.76098,2.70381 -10.03727,4.65043 -1.37186,0.81509 -3.78453,2.46475 -3.78453,2.58767 0,0.25426 0.81236,0.76504 1.37784,0.86633 0.12682,0.0227 0.5257,0.0919 0.88639,0.15379 0.75931,0.13023 1.03202,0.2168 1.31207,0.41648 0.3461,0.24677 0.48224,0.51726 0.51179,1.01691 l 0.0262,0.44203 0.43592,0.15653 c 0.54421,0.19542 1.01145,0.53171 1.12549,0.81004 0.16433,0.40108 0.0196,0.82712 -0.5399,1.58946 -0.18811,0.2563 -0.34048,0.47936 -0.3386,0.49568 0.002,0.0163 1.93909,-1.30214 4.3049,-2.92992 l 4.30149,-2.9596 z m -11.03821,5.06817 c 0,-0.0781 0.6041,-0.38153 1.83616,-0.92219 2.0028,-0.87888 2.19238,-0.85854 0.76362,0.0819 -0.44659,0.29396 -0.95381,0.58717 -1.12715,0.65158 -0.55993,0.20806 -1.47263,0.325 -1.47263,0.18869 z m -0.18923,-0.72862 c 0,-0.0525 3.22464,-1.37196 3.93402,-1.60971 0.19337,-0.0648 0.37367,-0.10231 0.40066,-0.0833 0.072,0.0506 -0.69704,0.5234 -1.24398,0.76487 -0.74892,0.33063 -3.0907,1.0339 -3.0907,0.92818 z m 0.27353,-0.88041 c 0.076,-0.084 7.86938,-3.47323 10.02464,-4.35956 1.73303,-0.7127 -0.49407,0.53729 -2.94987,1.65565 -1.05572,0.48076 -3.35584,1.39732 -5.64526,2.24954 -1.13063,0.42086 -1.50756,0.54067 -1.42951,0.45437 z m 2.20192,-1.83195 c 0.0372,-0.0763 1.66003,-0.98055 2.91751,-1.62565 1.64519,-0.844 6.50434,-3.01921 6.74453,-3.01921 0.19443,0 -0.53347,0.40151 -2.7077,1.49357 -1.81216,0.91019 -6.76313,3.20463 -6.915,3.20463 -0.0359,0 -0.0537,-0.024 -0.0393,-0.0533 z m 17.97006,-2.57167 c 0.84704,-0.14861 1.14808,-0.28424 2.32425,-1.04718 1.04195,-0.67588 1.07554,-0.70301 1.02766,-0.83003 -0.0272,-0.0722 -0.0486,-0.29619 -0.0476,-0.49769 0.002,-0.3874 0.14129,-0.7504 0.45482,-1.18533 0.40316,-0.55926 1.26641,-0.90106 2.87311,-1.1376 1.57991,-0.23259 2.82068,-0.11845 3.97104,0.36532 0.19941,0.0839 0.39044,0.14071 0.42451,0.12632 0.077,-0.0325 0.44786,-0.84075 0.66277,-1.44452 0.29131,-0.81845 0.42014,-1.45316 0.45493,-2.24134 0.0399,-0.90443 -0.0643,-1.40608 -0.54896,-2.64181 -0.33965,-0.86605 -0.4157,-1.01362 -1.07088,-2.07793 -0.77323,-1.25608 -0.9122,-1.76501 -0.86754,-3.17709 0.0248,-0.78492 0.067,-1.12644 0.23052,-1.86592 0.25879,-1.17043 0.31187,-1.96495 0.16943,-2.536 -0.24779,-0.99338 -1.85487,-4.35235 -1.97615,-4.13038 -0.0173,0.0317 -4e-5,0.23537 0.0384,0.45258 0.36466,2.06059 0.12822,3.31053 -0.87658,4.63404 -0.20425,0.26904 -1.13587,1.27764 -2.07025,2.24134 -2.94648,3.03891 -4.9382,5.53443 -5.52894,6.92745 -0.46696,1.10114 -0.49365,2.22663 -0.0863,3.63921 0.24126,0.83659 0.60643,1.49077 1.15657,2.07192 0.16063,0.16968 0.27998,0.31676 0.26522,0.32685 -0.0148,0.0101 -0.15517,-0.0792 -0.31201,-0.1984 -1.0319,-0.78429 -1.77127,-2.79496 -1.66502,-4.52791 0.0821,-1.33846 0.55743,-2.25671 2.30946,-4.46113 1.45001,-1.82442 2.60928,-3.1273 4.54628,-5.10949 l 0.89522,-0.9161 -0.0721,-0.96473 c -0.11942,-1.59862 -0.28062,-2.32985 -0.8582,-3.8931 -0.33797,-0.91472 -0.501,-1.30405 -0.58973,-1.40833 -0.0603,-0.0709 -0.0674,-0.068 -0.0708,0.029 -0.0489,1.36852 -0.30708,2.78397 -0.65974,3.6172 -0.72227,1.70649 -1.78319,3.04263 -5.05077,6.36107 -1.70863,1.73523 -2.28433,2.3613 -3.07889,3.34828 -1.29521,1.60889 -1.63448,2.24651 -1.81387,3.40896 -0.0748,0.4846 -0.0343,1.18544 0.10457,1.80864 0.1036,0.46501 0.10663,0.52493 0.0191,0.37793 -0.12094,-0.20316 -0.29724,-0.84068 -0.37148,-1.34332 -0.0563,-0.38109 -0.0569,-0.64715 -0.002,-1.09911 0.12749,-1.05727 0.41471,-1.67097 1.38858,-2.96696 1.34352,-1.78791 2.91254,-3.51132 5.45061,-5.98695 0.50796,-0.49546 0.92355,-0.92888 0.92355,-0.96315 0,-0.0343 -0.0584,-0.11841 -0.12985,-0.18694 -0.24228,-0.23252 -0.61974,-0.83827 -0.79105,-1.2695 -0.14186,-0.35711 -0.17552,-0.54576 -0.19967,-1.11915 -0.0335,-0.79514 0.0327,-1.25755 0.3425,-2.3922 0.11974,-0.43857 0.31505,-1.15664 0.43401,-1.59571 0.5072,-1.87192 0.64412,-3.16514 0.4106,-3.87833 -0.26982,-0.82409 -1.05497,-2.07188 -1.76949,-2.81216 -0.37167,-0.38507 -0.50723,-0.45575 -0.66602,-0.34724 -0.14289,0.0976 -0.10598,0.38241 0.25025,1.93097 0.43806,1.90428 0.43982,1.91622 0.44139,2.99564 0.001,0.92168 -0.0117,1.04785 -0.14502,1.40084 -0.33485,0.88665 -0.74657,1.39449 -2.45297,3.02564 -1.56257,1.49367 -2.17204,2.18752 -4.36552,4.9699 -0.71952,0.9127 -1.6005,1.98919 -1.95772,2.3922 -0.35723,0.40301 -0.74106,0.86973 -0.85297,1.03716 -0.42755,0.63968 -0.93209,1.87303 -1.13978,2.78617 -0.13462,0.59193 -0.15173,1.89819 -0.0324,2.46966 0.53723,2.5716 1.4659,4.17374 3.80856,6.57049 2.15456,2.20433 3.07064,2.81724 4.48771,3.00258 0.58122,0.076 1.62342,0.0461 2.25496,-0.0647 z m 13.66611,-6.99172 c 1.065,-0.2931 2.78101,-0.87044 3.63905,-1.22433 0.97455,-0.40195 1.44403,-0.65322 2.49148,-1.33349 1.42973,-0.92854 1.87013,-1.15975 3.12523,-1.64075 1.31652,-0.50454 2.98852,-1.00512 4.68441,-1.40247 0.42274,-0.099 0.76855,-0.19234 0.76847,-0.20731 -6e-5,-0.015 -0.15811,-0.0836 -0.35117,-0.15257 -0.50256,-0.17945 -0.9436,-0.46525 -1.0717,-0.69447 -0.13584,-0.24306 -0.096,-0.46596 0.14017,-0.78499 0.14792,-0.19979 0.16248,-0.24516 0.0843,-0.26276 -0.052,-0.0117 -0.19042,-0.0866 -0.30767,-0.16647 -0.21059,-0.14346 -0.2128,-0.14897 -0.18271,-0.45643 0.0323,-0.32973 0.24672,-0.71468 0.619,-1.11112 0.10278,-0.10946 0.18688,-0.21908 0.18688,-0.2436 0,-0.0245 -0.11281,-0.0569 -0.25069,-0.072 -0.72839,-0.0796 -1.05269,-0.76366 -0.88881,-1.87481 0.0398,-0.26969 0.0551,-0.50214 0.034,-0.51655 -0.0211,-0.0144 -0.31318,0.0707 -0.64908,0.18917 -0.3359,0.11846 -2.0725,0.72695 -3.85911,1.35219 -5.70725,1.99733 -10.89615,3.86437 -11.09181,3.991 -0.071,0.046 -0.0475,0.10926 0.14155,0.38155 1.07428,1.54699 1.67681,3.60933 1.67785,5.74294 1.9e-4,0.35757 0.0192,0.66306 0.0424,0.67887 0.0797,0.0544 0.21984,0.028 1.01802,-0.19161 z m -0.24009,-2.32245 c 0,-0.13079 1.61836,-0.7189 3.94221,-1.4326 2.2837,-0.70137 2.73116,-0.81239 2.49693,-0.61952 -0.11692,0.0963 -1.25156,0.60066 -2.0866,0.92758 -0.77769,0.30446 -1.75501,0.59694 -3.20255,0.9584 -0.81845,0.20437 -1.14999,0.25227 -1.14999,0.16614 z m 0.81998,-2.40847 c 0,-0.0258 0.14901,-0.10523 0.33114,-0.17651 0.40687,-0.15923 3.38998,-1.11903 4.94598,-1.59132 2.3909,-0.72572 5.07535,-1.42731 5.4612,-1.42731 0.25087,0 0.21768,0.0944 -0.0943,0.26838 -0.35037,0.19535 -2.39871,1.16683 -3.29027,1.56051 -1.61223,0.71189 -1.56489,0.65802 0.19958,-0.22714 1.48181,-0.74337 1.89861,-0.97419 1.83706,-1.01737 -0.067,-0.047 -0.77479,0.14104 -2.54666,0.67659 -2.37929,0.71915 -6.48605,1.91973 -6.68116,1.9532 -0.10008,0.0172 -0.16253,0.01 -0.16253,-0.019 z m 1.85842,-3.08343 c 0.44684,-0.25835 3.96844,-1.53538 5.9314,-2.15089 1.54595,-0.48475 3.05296,-0.82708 3.19966,-0.72683 0.0822,0.0562 -0.22103,0.15993 -2.9789,1.01971 -1.19685,0.37313 -3.04181,0.95537 -4.0999,1.29387 -1.05809,0.3385 -1.99476,0.62822 -2.08149,0.64383 -0.15395,0.0277 -0.15325,0.0258 0.0292,-0.0797 z m -26.39478,7.66482 c 0,-0.0138 -0.10064,-0.25139 -0.22364,-0.52801 -0.60325,-1.35664 -0.84612,-2.85681 -0.65567,-4.04985 0.1271,-0.7962 0.47288,-1.7056 0.88661,-2.33181 0.10006,-0.15144 0.18193,-0.29185 0.18193,-0.31201 0,-0.0202 -0.23417,-0.11702 -0.52037,-0.21524 -2.52839,-0.86771 -8.59254,-3.26694 -14.44509,-5.71507 l -1.19704,-0.50073 -0.48124,0.0967 c -0.66515,0.13359 -1.28036,0.31374 -1.83792,0.53818 -0.62683,0.25233 -1.79025,0.89728 -2.11935,1.17488 -0.66982,0.565 -0.75713,1.38782 -0.29887,2.81649 0.21675,0.67574 0.95092,2.18946 1.08445,2.23593 0.0574,0.02 0.34561,0.0795 0.64049,0.1322 2.03742,0.36433 4.97893,1.13984 6.7355,1.77575 0.95052,0.34411 7.19589,2.8596 9.91642,3.9941 1.99539,0.83211 2.33379,0.96095 2.33379,0.88853 z m -3.50152,-6.6823 c -1.55103,-0.53601 -5.76969,-2.04695 -8.19897,-2.93651 -2.10095,-0.76933 -3.20967,-1.19885 -3.31196,-1.28307 -0.21093,-0.17369 0.67468,0.009 2.14506,0.44215 2.31509,0.68221 6.77138,2.3802 10.01323,3.81536 0.68282,0.30228 0.88531,0.41953 0.72453,0.41953 -0.0265,0 -0.64382,-0.20586 -1.37189,-0.45746 z m -12.85605,0.11331 c -0.22773,-0.18494 -0.42507,-0.57846 -0.46504,-0.92732 -0.0426,-0.37194 0.0253,-0.33853 0.26273,0.12925 0.0963,0.18965 0.25685,0.4558 0.35687,0.59143 0.10002,0.13564 0.18185,0.26656 0.18185,0.29095 0,0.0873 -0.18088,0.042 -0.33641,-0.0843 z m -0.80539,-0.27162 c -0.41113,-0.18903 -0.78187,-0.84709 -0.85513,-1.51781 -0.0487,-0.44633 0.0253,-0.39677 0.32206,0.21551 0.12638,0.26077 0.37043,0.66524 0.54234,0.89882 0.40526,0.55065 0.40427,0.59362 -0.009,0.40348 z m -1.58563,-0.29211 c -0.53411,-0.1927 -1.0058,-1.05103 -1.0982,-1.9984 -0.046,-0.47199 0.0298,-0.45887 0.23103,0.0399 0.1939,0.48067 0.57991,1.13442 0.94865,1.60664 0.17168,0.21987 0.31215,0.40898 0.31215,0.42025 0,0.0426 -0.16591,0.0137 -0.39363,-0.0684 z m 14.72882,-0.77854 c -1.54592,-0.53987 -3.85311,-1.37525 -5.31539,-1.92458 -2.52093,-0.94704 -6.47461,-2.71568 -6.16716,-2.75884 0.1176,-0.0165 0.79531,0.22107 3.39184,1.18898 5.20522,1.94037 8.15006,3.12722 9.35093,3.76868 0.2301,0.12291 0.30024,0.20531 0.17475,0.20531 -0.034,0 -0.67972,-0.2158 -1.43497,-0.47955 z m 43.26092,1.85591 c 1.02107,-1.79442 1.3476,-2.2862 1.96427,-2.95826 0.61518,-0.67046 0.74187,-0.84339 0.75194,-1.02642 0.0149,-0.27156 -0.28033,-0.4116 -1.6206,-0.7686 -0.48568,-0.12937 -1.37727,-0.3826 -1.98131,-0.56273 -0.60404,-0.18014 -1.13333,-0.32752 -1.17619,-0.32752 -0.0943,0 -0.21704,0.4456 -0.21704,0.78803 0,0.69428 0.35306,1.0231 1.2149,1.13152 0.13048,0.0164 0.24985,0.0438 0.26527,0.0608 0.0154,0.017 -0.11624,0.16517 -0.29256,0.32916 -0.37981,0.35324 -0.74608,0.85208 -0.74608,1.01611 0,0.19133 0.11534,0.35145 0.3548,0.49257 l 0.22559,0.13295 -0.16246,0.21908 c -0.3095,0.41737 -0.2776,0.75232 0.10422,1.09441 0.20598,0.18454 1.03593,0.60646 1.14641,0.58279 0.0331,-0.007 0.10905,-0.0989 0.16884,-0.20393 z m -0.54893,-2.26147 c -0.0757,-0.27568 0.0116,-0.64493 0.22847,-0.96643 0.1895,-0.28095 0.34234,-0.42671 0.40357,-0.38487 0.0528,0.0361 -0.4435,1.47613 -0.51427,1.49225 -0.0437,0.01 -0.0923,-0.0482 -0.11777,-0.14095 z m 1.15221,-1.16825 c -0.0723,-0.0494 -0.0494,-0.64972 0.0294,-0.76784 0.14296,-0.21441 0.19319,-0.11588 0.14729,0.28891 -0.0453,0.39997 -0.095,0.53471 -0.17668,0.47893 z m -1.32377,-0.8815 c -0.29593,-0.10672 -0.48561,-0.31132 -0.48592,-0.52413 -3.1e-4,-0.19673 0.0575,-0.20229 0.67118,-0.0647 l 0.43241,0.097 -0.33115,0.013 c -0.30972,0.0122 -0.33114,0.0203 -0.33114,0.12518 0,0.0763 0.084,0.1651 0.26279,0.27791 0.20286,0.12798 0.23523,0.16536 0.14192,0.16389 -0.0665,-0.001 -0.22852,-0.0407 -0.36009,-0.0882 z m -15.21154,2.62236 2.39173,-0.87283 0.56147,-0.64654 c 0.86657,-0.99788 3.18803,-3.71414 3.46274,-4.05165 0.62008,-0.7618 0.73186,-1.12117 0.58151,-1.86947 -0.0554,-0.27565 -0.15334,-0.66604 -0.21767,-0.86755 -0.14007,-0.43875 -0.49451,-1.20694 -0.55677,-1.20672 -0.0244,8e-5 -0.62622,0.38067 -1.33739,0.84574 -0.71118,0.46507 -1.54641,0.99102 -1.85607,1.16876 -0.50682,0.29091 -0.57088,0.31584 -0.64168,0.24967 -0.0457,-0.0427 -0.0655,-0.1397 -0.0472,-0.23143 0.23217,-1.16514 0.75796,-1.89199 2.18179,-3.01611 0.3096,-0.24443 0.54992,-0.46749 0.53404,-0.49568 -0.0348,-0.0617 -1.14037,-0.34022 -1.84239,-0.46416 -0.60465,-0.10676 -2.01958,-0.16308 -2.22347,-0.0885 -0.0772,0.0282 -0.50522,0.51777 -1.03166,1.18 -1.24613,1.56754 -2.15242,2.66126 -2.55878,3.08793 l -0.34419,0.3614 0.12384,0.19893 c 0.48005,0.77115 0.67031,1.53389 0.62371,2.50029 -0.0314,0.65108 -0.27563,2.13932 -0.52067,3.17269 -0.15729,0.66333 -0.10323,1.33772 0.14063,1.75419 0.0528,0.0901 0.11593,0.16388 0.14034,0.16388 0.0244,0 1.12067,-0.39277 2.43613,-0.87283 z m -1.52933,-2.43175 c -0.11176,-0.19902 0.31133,-0.94774 1.47509,-2.61035 0.73064,-1.04383 0.9028,-1.25751 0.97396,-1.20888 0.0602,0.0412 -0.22162,0.75131 -0.63765,1.60667 -0.41324,0.84966 -1.48496,2.28444 -1.70638,2.28444 -0.0356,0 -0.0828,-0.0323 -0.10502,-0.0719 z m 3.28941,-1.98627 c 0.0715,-0.20229 0.89116,-1.30861 1.22144,-1.64868 0.40822,-0.42033 1.35916,-1.17307 2.0828,-1.64868 0.96771,-0.63603 0.91152,-0.50599 -0.30267,0.70042 -0.88329,0.87765 -2.27781,2.1906 -2.6667,2.51073 -0.2825,0.23256 -0.39705,0.26205 -0.33487,0.0862 z m -2.97027,-1.36904 c -0.10295,-0.18333 0.24786,-1.07028 0.69096,-1.74698 0.24599,-0.37568 0.74428,-0.9294 1.33933,-1.48831 0.66106,-0.62092 1.48513,-1.32198 1.52329,-1.2959 0.0152,0.0104 -0.27721,0.35544 -0.64989,0.76673 -0.72522,0.80036 -1.16625,1.39841 -1.79109,2.42881 -0.78873,1.30066 -0.99392,1.54699 -1.1126,1.33565 z m -17.71129,25.22857 c -0.28241,-0.22546 -0.83868,-0.96496 -1.11214,-1.47847 -0.17384,-0.32644 -0.2072,-0.4494 -0.21047,-0.77584 -0.003,-0.331 0.0202,-0.42328 0.16044,-0.62882 0.34603,-0.50728 0.97955,-0.7685 1.9517,-0.80477 0.82113,-0.0306 1.04105,0.087 1.19421,0.63889 0.18234,0.65705 -0.0795,1.52925 -0.75563,2.5166 -0.51293,0.74907 -0.80054,0.87376 -1.22811,0.53241 z m 4.44767,-0.46709 c -0.55305,-0.0786 -0.88419,-0.17705 -1.05117,-0.31266 -0.15043,-0.12216 -0.16342,-0.15968 -0.13031,-0.37619 0.1127,-0.73682 1.14769,-2.19749 1.55708,-2.19749 0.38102,0 1.47612,1.7164 1.55757,2.44124 0.0338,0.30118 0.0308,0.30935 -0.14379,0.38753 -0.14114,0.0632 -0.3173,0.0817 -0.84432,0.0885 -0.36628,0.005 -0.79156,-0.009 -0.94506,-0.031 z m 18.79175,-6.63926 c -0.99904,-0.06 -2.32285,-0.37214 -2.72196,-0.64181 -0.29337,-0.19823 -0.39398,-0.44298 -0.34965,-0.85059 0.0411,-0.37755 0.28772,-0.78024 0.58843,-0.96067 0.76273,-0.45763 4.08799,-0.51271 4.61485,-0.0764 0.36116,0.29906 0.0498,1.57948 -0.53007,2.18021 -0.31977,0.33123 -0.66152,0.40577 -1.6016,0.34931 z m -31.34851,-2.71478 c -0.85952,-0.1053 -1.89815,-0.286 -1.98314,-0.34503 -0.13751,-0.0955 0.47105,-0.27408 1.38473,-0.40633 0.67784,-0.0981 0.96874,-0.0855 1.29566,0.0563 0.38967,0.16905 0.88118,0.63409 0.78388,0.74167 -0.0585,0.0647 -0.74974,0.043 -1.48113,-0.0467 z m -5.39262,-0.47159 c -0.14925,-0.1127 -0.19916,-0.6194 -0.10033,-1.01871 0.10622,-0.42918 0.36271,-0.93139 0.58073,-1.13706 0.28801,-0.27168 0.53048,-0.32442 1.2229,-0.26594 1.36079,0.11491 3.31087,0.67005 3.31087,0.94251 0,0.24745 -2.02592,1.01204 -3.74539,1.41353 -0.74868,0.17481 -1.10016,0.193 -1.26878,0.0657 z m 12.1885,-15.50033 c -0.0972,-0.10752 -0.4868,-1.7578 -0.68569,-2.90476 -0.11026,-0.63581 -0.13942,-1.0507 -0.14392,-2.04737 -0.005,-1.1905 0.001,-1.26691 0.1432,-1.60559 0.0819,-0.19558 0.36173,-0.65139 0.62194,-1.01291 0.65315,-0.90743 0.71657,-1.04245 0.75729,-1.61228 0.0557,-0.77923 -0.15128,-1.63885 -0.60524,-2.51389 -0.10428,-0.20101 -0.17849,-0.37305 -0.16493,-0.38232 0.10703,-0.0731 1.20568,0.35497 1.73795,0.67721 1.18477,0.7173 2.22613,2.20854 2.36623,3.3885 0.16552,1.394 -1.14674,4.17314 -3.46348,7.33504 -0.28969,0.39538 -0.5432,0.70065 -0.56335,0.67837 z m 0.60145,-1.16946 c 1.02006,-1.23707 1.65653,-2.31974 2.3124,-3.93353 0.57998,-1.42708 0.72321,-1.98712 0.72206,-2.82323 -6.8e-4,-0.48659 -0.0281,-0.67297 -0.1414,-0.96255 -0.2014,-0.51458 -0.56468,-1.06342 -0.99011,-1.49586 -0.50953,-0.51793 -1.70582,-1.3448 -1.82641,-1.2624 -0.0155,0.0106 0.0694,0.21203 0.18869,0.44764 0.39339,0.77713 0.52601,1.72515 0.31777,2.27149 -0.0513,0.13467 -0.40603,0.66729 -0.78821,1.1836 -0.56316,0.7608 -0.71361,1.00411 -0.7937,1.28357 -0.26914,0.93911 -0.13845,3.18991 0.29158,5.02146 0.13317,0.56722 0.21243,0.75299 0.30465,0.71404 0.0307,-0.013 0.21191,-0.21287 0.40268,-0.44423 z m 14.13028,-5.53445 c -0.12843,-0.10595 -0.94543,-1.34454 -1.40332,-2.12747 -0.73281,-1.253 -0.97586,-2.2164 -0.72899,-2.8896 0.15611,-0.42569 0.69761,-1.11477 1.09819,-1.39747 0.27357,-0.19307 1.04062,-0.56198 1.16848,-0.56198 0.0112,0 -0.0457,0.12434 -0.12643,0.27631 -0.22883,0.43079 -0.35954,0.98788 -0.3296,1.4047 0.0222,0.30827 0.0643,0.42447 0.26603,0.73274 0.47528,0.72645 0.54457,0.86247 0.60809,1.19374 0.10194,0.53171 0.005,1.53073 -0.26143,2.70706 -0.1492,0.65757 -0.18836,0.74665 -0.29102,0.66197 z m 0.18167,-0.79453 c 0.22445,-0.90634 0.31388,-2.32202 0.17846,-2.82487 -0.0365,-0.13562 -0.25293,-0.48912 -0.52038,-0.85003 l -0.45784,-0.61785 0.001,-0.43816 c 0.001,-0.3365 0.0363,-0.51583 0.15141,-0.77291 0.0824,-0.18411 0.13075,-0.34784 0.10732,-0.36385 -0.0718,-0.049 -0.73137,0.4221 -1.0459,0.74706 -0.16348,0.16889 -0.3658,0.45013 -0.44961,0.62498 -0.13249,0.27642 -0.15158,0.39387 -0.14622,0.8998 0.007,0.64386 0.12483,1.02851 0.65744,2.14296 0.38576,0.80716 1.18349,1.93294 1.34427,1.89708 0.0405,-0.009 0.12129,-0.20893 0.17956,-0.44421 z" style="display:inline;fill:#21180c;stroke-width:0.05214136"/> </g> </g> </svg>